<?xml version="1.0" encoding="UTF-8"?>
<!DOCTYPE svg PUBLIC "-//W3C//DTD SVG 1.1//EN" "http://www.w3.org/Graphics/SVG/1.1/DTD/svg11.dtd">
<!-- Creator: CorelDRAW 2021 (64 Bit) -->
<svg xmlns="http://www.w3.org/2000/svg" xml:space="preserve" width="39.796mm" height="39.796mm" version="1.1" style="shape-rendering:geometricPrecision; text-rendering:geometricPrecision; image-rendering:optimizeQuality; fill-rule:evenodd; clip-rule:evenodd"
viewBox="0 0 3664.29 3664.29"
 xmlns:xlink="http://www.w3.org/1999/xlink"
 xmlns:xodm="http://www.corel.com/coreldraw/odm/2003">
 <defs>
  <style type="text/css">
   <![CDATA[
    .str0 {stroke:#FEFEFE;stroke-width:63.83;stroke-linecap:round;stroke-linejoin:round;stroke-miterlimit:22.9256}
    .fil0 {fill:none}
    .fil1 {fill:#FEFEFE}
   ]]>
  </style>
 </defs>
 <g id="Camada_x0020_1">
  <metadata id="CorelCorpID_0Corel-Layer"/>
  <path class="fil0 str0" d="M1832.15 31.91c994.24,0 1800.23,806 1800.23,1800.23 0,994.24 -806,1800.23 -1800.23,1800.23 -994.24,0 -1800.23,-806 -1800.23,-1800.23 0,-994.24 806,-1800.23 1800.23,-1800.23z"/>
  <path class="fil1" d="M1530 536.32l-24.69 -259.17c-1721.66,514.8 -1580.79,2562.42 -221.35,3035.27 223.32,86.49 232,-208.02 122.62,-320.08 -171.98,-164.64 -558.6,-667.35 -129.59,-1153.96 161.25,-102.22 596.16,-499.58 499.84,-129.59 168.68,-156.33 342.71,-189.24 506.02,-468.98 122.63,269.39 197.5,490.24 228.32,703.48 13.92,113.77 1.19,212.46 -92.56,265.36 -113.46,15.03 -247.08,124.88 -74.05,141.93 30.46,0.78 129.52,126.67 30.85,127.46 -101.38,52.02 -158.4,59.64 -80.23,242.79 -60.87,225.2 -233.11,267.1 -270.78,445.89 -13.17,206.61 58.02,252.32 301.63,165.03 1538.2,-659.1 1376.49,-2521.76 -43.19,-3011.39l-18.52 221.22c1120.19,517.55 1206.95,1968.37 117.25,2500.14 -255.92,129.53 -192.69,-20.19 -104.91,-209.81 204.79,-419.29 655.07,-421.21 678.8,-1073.74 -95.77,-662.18 -609.13,-1241.17 -1351.42,-1450.16 577.05,665.3 -196.23,1039.05 -524.53,1351.43 -348.88,381.96 -289.03,778.61 -48.41,1097.81 105.65,140.17 370.81,280.8 284.92,315.32 -1244.73,-560.55 -1003.45,-2220.83 213.97,-2536.24z"/>
 </g>
</svg>
